<?xml version="1.0" encoding="UTF-8" standalone="no"?>
<!-- Created with Inkscape (http://www.inkscape.org/) -->

<svg
   xmlns:dc="http://purl.org/dc/elements/1.1/"
   xmlns:cc="http://creativecommons.org/ns#"
   xmlns:rdf="http://www.w3.org/1999/02/22-rdf-syntax-ns#"
   xmlns:svg="http://www.w3.org/2000/svg"
   xmlns="http://www.w3.org/2000/svg"
   xmlns:sodipodi="http://sodipodi.sourceforge.net/DTD/sodipodi-0.dtd"
   xmlns:inkscape="http://www.inkscape.org/namespaces/inkscape"
   width="210mm"
   height="297mm"
   viewBox="0 0 744.09448819 1052.3622047"
   id="svg5703"
   version="1.1"
   inkscape:version="0.91 r13725"
   sodipodi:docname="fullstack_overview.svg">
  <defs
     id="defs5705">
    <inkscape:perspective
       sodipodi:type="inkscape:persp3d"
       inkscape:vp_x="0 : 526.1811 : 1"
       inkscape:vp_y="0 : 1000 : 0"
       inkscape:vp_z="744.09449 : 526.1811 : 1"
       inkscape:persp3d-origin="372.04724 : 350.7874 : 1"
       id="perspective5727" />
  </defs>
  <sodipodi:namedview
     id="base"
     pagecolor="#ffffff"
     bordercolor="#666666"
     borderopacity="1.0"
     inkscape:pageopacity="0.0"
     inkscape:pageshadow="2"
     inkscape:zoom="0.70710678"
     inkscape:cx="327.35315"
     inkscape:cy="583.13989"
     inkscape:document-units="px"
     inkscape:current-layer="layer1"
     showgrid="false"
     inkscape:window-width="1920"
     inkscape:window-height="1147"
     inkscape:window-x="0"
     inkscape:window-y="0"
     inkscape:window-maximized="1" />
  <metadata
     id="metadata5708">
    <rdf:RDF>
      <cc:Work
         rdf:about="">
        <dc:format>image/svg+xml</dc:format>
        <dc:type
           rdf:resource="http://purl.org/dc/dcmitype/StillImage" />
        <dc:title></dc:title>
      </cc:Work>
    </rdf:RDF>
  </metadata>
  <g
     inkscape:label="Layer 1"
     inkscape:groupmode="layer"
     id="layer1">
    <g
       sodipodi:type="inkscape:box3d"
       id="g5729"
       style="fill:#0066ff;fill-opacity:1;stroke:#8c0094;stroke-width:10.62992096;stroke-miterlimit:4;stroke-dasharray:none;stroke-opacity:0.6585366"
       inkscape:perspectiveID="#perspective5727"
       inkscape:corner0="0.38461644 : 0.47066396 : 0 : 1"
       inkscape:corner7="0.017425342 : 0.3409725 : 0.25 : 1">
      <path
         sodipodi:type="inkscape:box3dside"
         id="path5741"
         style="fill:#e9e9ff;fill-rule:evenodd;stroke:none;stroke-width:1px;stroke-linecap:butt;stroke-linejoin:round;stroke-opacity:1"
         inkscape:box3dsidetype="11"
         d="m 341.40783,345.54531 98.9107,-52.33275 0,102.3267 -98.9107,29.34666 z"
         points="440.31853,293.21256 440.31853,395.53926 341.40783,424.88592 341.40783,345.54531 " />
      <path
         sodipodi:type="inkscape:box3dside"
         id="path5731"
         style="fill:#353564;fill-rule:evenodd;stroke:none;stroke-width:1px;stroke-linecap:butt;stroke-linejoin:round;stroke-opacity:1"
         inkscape:box3dsidetype="6"
         d="m 268.70058,312.93054 0,93.66598 72.70725,18.2894 0,-79.34061 z"
         points="268.70058,406.59652 341.40783,424.88592 341.40783,345.54531 268.70058,312.93054 " />
      <path
         sodipodi:type="inkscape:box3dside"
         id="path5733"
         style="fill:#4d4d9f;fill-rule:evenodd;stroke:none;stroke-width:1px;stroke-linecap:butt;stroke-linejoin:round;stroke-opacity:1"
         inkscape:box3dsidetype="5"
         d="m 268.70058,312.93054 96.97464,-76.96261 74.64331,57.24463 -98.9107,52.33275 z"
         points="365.67522,235.96793 440.31853,293.21256 341.40783,345.54531 268.70058,312.93054 " />
      <path
         sodipodi:type="inkscape:box3dside"
         id="path5739"
         style="fill:#afafde;fill-rule:evenodd;stroke:none;stroke-width:1px;stroke-linecap:butt;stroke-linejoin:round;stroke-opacity:1"
         inkscape:box3dsidetype="13"
         d="m 268.70058,406.59652 96.97464,-43.15835 74.64331,32.10109 -98.9107,29.34666 z"
         points="365.67522,363.43817 440.31853,395.53926 341.40783,424.88592 268.70058,406.59652 " />
      <path
         sodipodi:type="inkscape:box3dside"
         id="path5737"
         style="fill:#d7d7ff;fill-rule:evenodd;stroke:none;stroke-width:1px;stroke-linecap:butt;stroke-linejoin:round;stroke-opacity:1"
         inkscape:box3dsidetype="14"
         d="m 365.67522,235.96793 0,127.47024 74.64331,32.10109 0,-102.3267 z"
         points="365.67522,363.43817 440.31853,395.53926 440.31853,293.21256 365.67522,235.96793 " />
      <path
         sodipodi:type="inkscape:box3dside"
         id="path5735"
         style="fill:#8686bf;fill-rule:evenodd;stroke:none;stroke-width:1px;stroke-linecap:butt;stroke-linejoin:round;stroke-opacity:1"
         inkscape:box3dsidetype="3"
         d="m 268.70058,312.93054 96.97464,-76.96261 0,127.47024 -96.97464,43.15835 z"
         points="365.67522,235.96793 365.67522,363.43817 268.70058,406.59652 268.70058,312.93054 " />
    </g>
    <flowRoot
       xml:space="preserve"
       id="flowRoot5743"
       style="font-style:normal;font-weight:normal;font-size:40px;line-height:125%;font-family:sans-serif;letter-spacing:0px;word-spacing:0px;fill:#000000;fill-opacity:1;stroke:none;stroke-width:1px;stroke-linecap:butt;stroke-linejoin:miter;stroke-opacity:1"
       transform="matrix(1.486438,0,0,1,-136.48203,0)"><flowRegion
         id="flowRegion5745"><rect
           id="rect5747"
           width="466.69049"
           height="129.29953"
           x="145.46196"
           y="32.108135" /></flowRegion><flowPara
         id="flowPara5749">Server - A remote computer</flowPara></flowRoot>    <flowRoot
       xml:space="preserve"
       id="flowRoot5751"
       style="font-style:normal;font-weight:normal;font-size:40px;line-height:125%;font-family:sans-serif;letter-spacing:0px;word-spacing:0px;fill:#000000;fill-opacity:1;stroke:none;stroke-width:1px;stroke-linecap:butt;stroke-linejoin:miter;stroke-opacity:1"><flowRegion
         id="flowRegion5753"><rect
           id="rect5755"
           width="585.88849"
           height="103.03556"
           x="78.791901"
           y="929.1236" /></flowRegion><flowPara
         id="flowPara5757">Client- The computer in front of you</flowPara></flowRoot>    <g
       sodipodi:type="inkscape:box3d"
       id="g5759"
       style="fill:#0066ff;fill-opacity:1;stroke:#8c0094;stroke-width:10.62992096;stroke-miterlimit:4;stroke-dasharray:none;stroke-opacity:0.6585366"
       inkscape:perspectiveID="#perspective5727"
       inkscape:corner0="0.27884713 : -0.076374678 : 0 : 1"
       inkscape:corner7="-0.07460308 : -0.1544876 : 0.25 : 1">
      <path
         sodipodi:type="inkscape:box3dside"
         id="path5769"
         style="fill:#afafde;fill-rule:evenodd;stroke:none;stroke-width:1px;stroke-linecap:butt;stroke-linejoin:round;stroke-opacity:1"
         inkscape:box3dsidetype="13"
         d="m 290.92393,784.13321 111.11678,98.52337 72.75282,-75.82023 -109.76628,-64.88396 z"
         points="402.04071,882.65658 474.79353,806.83635 365.02725,741.95239 290.92393,784.13321 " />
      <path
         sodipodi:type="inkscape:box3dside"
         id="path5761"
         style="fill:#353564;fill-rule:evenodd;stroke:none;stroke-width:1px;stroke-linecap:butt;stroke-linejoin:round;stroke-opacity:1"
         inkscape:box3dsidetype="6"
         d="m 290.92393,723.05247 0,61.08074 74.10332,-42.18082 0,-51.0927 z"
         points="290.92393,784.13321 365.02725,741.95239 365.02725,690.85969 290.92393,723.05247 " />
      <path
         sodipodi:type="inkscape:box3dside"
         id="path5771"
         style="fill:#e9e9ff;fill-rule:evenodd;stroke:none;stroke-width:1px;stroke-linecap:butt;stroke-linejoin:round;stroke-opacity:1"
         inkscape:box3dsidetype="11"
         d="m 365.02725,690.85969 109.76628,49.52002 0,66.45664 -109.76628,-64.88396 z"
         points="474.79353,740.37971 474.79353,806.83635 365.02725,741.95239 365.02725,690.85969 " />
      <path
         sodipodi:type="inkscape:box3dside"
         id="path5763"
         style="fill:#4d4d9f;fill-rule:evenodd;stroke:none;stroke-width:1px;stroke-linecap:butt;stroke-linejoin:round;stroke-opacity:1"
         inkscape:box3dsidetype="5"
         d="M 290.92393,723.05247 402.04071,798.2464 474.79353,740.37971 365.02725,690.85969 Z"
         points="402.04071,798.2464 474.79353,740.37971 365.02725,690.85969 290.92393,723.05247 " />
      <path
         sodipodi:type="inkscape:box3dside"
         id="path5767"
         style="fill:#d7d7ff;fill-rule:evenodd;stroke:none;stroke-width:1px;stroke-linecap:butt;stroke-linejoin:round;stroke-opacity:1"
         inkscape:box3dsidetype="14"
         d="m 402.04071,798.2464 0,84.41018 72.75282,-75.82023 0,-66.45664 z"
         points="402.04071,882.65658 474.79353,806.83635 474.79353,740.37971 402.04071,798.2464 " />
      <path
         sodipodi:type="inkscape:box3dside"
         id="path5765"
         style="fill:#8686bf;fill-rule:evenodd;stroke:none;stroke-width:1px;stroke-linecap:butt;stroke-linejoin:round;stroke-opacity:1"
         inkscape:box3dsidetype="3"
         d="m 290.92393,723.05247 111.11678,75.19393 0,84.41018 -111.11678,-98.52337 z"
         points="402.04071,798.2464 402.04071,882.65658 290.92393,784.13321 290.92393,723.05247 " />
    </g>
    <path
       style="fill:#0066ff;fill-opacity:1;stroke:#8c0094;stroke-width:10.62992096;stroke-miterlimit:4;stroke-dasharray:none;stroke-opacity:0.6585366"
       id="path5773"
       d="m 444.64085,300.06906 c 7.99345,0.40375 15.85008,-1.2224 23.68968,-2.51325 5.71281,-1.01809 11.50769,-1.31839 17.29666,-1.48655 5.31043,9.6e-4 10.62976,-0.31401 15.91095,0.31067 5.46884,1.04681 10.27467,3.95633 15.40154,5.96303 4.54685,2.16267 9.41396,3.06357 14.38033,3.52786 4.96005,0.35352 9.93678,0.32295 14.90628,0.31185 0,0 -24.25756,17.61761 -24.25756,17.61761 l 0,0 c -5.03359,-0.029 -10.08201,-0.0266 -15.09021,-0.5984 -5.15052,-0.70681 -10.12507,-2.02158 -14.86793,-4.19885 -4.81049,-2.09039 -9.51038,-4.70922 -14.8217,-5.24401 -5.24347,-0.25741 -10.5002,-0.10504 -15.74697,0.0111 -5.67951,0.23204 -11.34316,0.70668 -16.9472,1.69601 -7.99352,1.27674 -16.01186,2.41398 -24.13566,2.24469 0,0 24.28179,-17.64175 24.28179,-17.64175 z"
       inkscape:connector-curvature="0" />
    <text
       xml:space="preserve"
       style="font-style:normal;font-weight:normal;font-size:38.89624023px;line-height:125%;font-family:sans-serif;letter-spacing:0px;word-spacing:0px;fill:#000000;fill-opacity:1;stroke:none;stroke-width:1px;stroke-linecap:butt;stroke-linejoin:miter;stroke-opacity:1"
       x="1202.1819"
       y="154.07213"
       id="text5775"
       sodipodi:linespacing="125%"
       transform="scale(0.46393863,2.1554575)"><tspan
         sodipodi:role="line"
         id="tspan5777"
         x="1202.1819"
         y="154.07213">MySQL Database</tspan></text>
    <path
       style="fill:#0066ff;fill-opacity:1;stroke:#8c0094;stroke-width:10.62992096;stroke-miterlimit:4;stroke-dasharray:none;stroke-opacity:0.6585366"
       id="path5779"
       d="m 420.74395,384.39113 c 10.30138,4.5365 19.77514,10.74082 28.86452,17.32706 9.80007,6.97212 17.85042,15.84857 25.69858,24.86285 5.08219,6.54798 11.02961,12.06893 17.4819,17.208 4.45988,3.75647 9.09914,7.1026 14.71571,8.77766 5.49163,1.908 11.00038,3.61416 16.76105,4.46219 0,0 -24.5044,17.17918 -24.5044,17.17918 l 0,0 c -5.82405,-1.12226 -11.43549,-2.97972 -17.0592,-4.84358 -5.69946,-2.19037 -10.52908,-5.78469 -15.16196,-9.72765 -6.51796,-5.30808 -12.46023,-11.06392 -17.58437,-17.7683 -7.66241,-8.88408 -15.50525,-17.61693 -25.22713,-24.3439 -9.05727,-6.46121 -18.50015,-12.58507 -28.96002,-16.53758 0,0 24.97532,-16.59593 24.97532,-16.59593 z"
       inkscape:connector-curvature="0" />
    <text
       xml:space="preserve"
       style="font-style:normal;font-weight:normal;font-size:32.7754097px;line-height:125%;font-family:sans-serif;letter-spacing:0px;word-spacing:0px;fill:#000000;fill-opacity:1;stroke:none;stroke-width:1px;stroke-linecap:butt;stroke-linejoin:miter;stroke-opacity:1"
       x="707.47827"
       y="359.77841"
       id="text5781"
       sodipodi:linespacing="125%"
       transform="scale(0.77874305,1.2841206)"><tspan
         sodipodi:role="line"
         id="tspan5783"
         x="707.47827"
         y="359.77841">PHP prog lang</tspan></text>
    <text
       xml:space="preserve"
       style="font-style:normal;font-weight:normal;font-size:40px;line-height:125%;font-family:sans-serif;letter-spacing:0px;word-spacing:0px;fill:#000000;fill-opacity:1;stroke:none;stroke-width:1px;stroke-linecap:butt;stroke-linejoin:miter;stroke-opacity:1"
       x="412.14224"
       y="521.02197"
       id="text5785"
       sodipodi:linespacing="125%"><tspan
         sodipodi:role="line"
         id="tspan5787"
         x="412.14224"
         y="521.02197">The &quot;Back end&quot;</tspan></text>
    <path
       style="fill:#0066ff;fill-opacity:1;stroke:#8c0094;stroke-width:10.62992096;stroke-miterlimit:4;stroke-dasharray:none;stroke-opacity:0.6585366"
       id="path5789"
       d="m 411.59872,731.16041 c 4.06282,-10.03604 5.86835,-20.77213 8.24377,-31.28216 2.1124,-9.0432 3.75574,-18.20341 6.6689,-27.0347 2.32726,-6.62078 6.48411,-12.26956 11.33687,-17.24812 11.98546,-10.81664 27.00492,-17.52125 40.9215,-25.36971 5.69985,-2.29718 11.86764,-2.56247 17.92995,-2.83086 6.8027,-0.59739 12.89634,2.52802 18.75282,5.58805 5.2729,2.58298 10.01703,6.08665 15.35821,8.54189 4.11302,1.73414 8.54266,1.91559 12.93522,2.04197 5.06013,0.38513 9.65177,0.024 14.25736,-2.16007 0.91473,-0.42022 1.82945,-0.84044 2.74418,-1.26066 0,0 -23.44183,18.55184 -23.44183,18.55184 l 0,0 c -0.9596,0.39789 -1.9192,0.79578 -2.8788,1.19367 -4.91842,1.48346 -9.91596,1.52807 -15.02105,1.19157 -4.69999,-0.28833 -9.34491,-0.91178 -13.60711,-3.07101 -5.20598,-2.69813 -10.03841,-6.05581 -15.31746,-8.62261 -5.70057,-2.8131 -11.38524,-5.15607 -17.89382,-4.27224 -5.90392,0.39152 -11.82135,1.02779 -17.1864,3.73897 7.6028,-4.44598 15.20687,-8.88979 22.8084,-13.33796 0.8855,-0.51816 -1.77071,1.03689 -2.66032,1.54797 -0.89068,0.51169 -1.82485,0.95191 -2.68047,1.52029 -2.56543,1.70421 -4.82194,3.88915 -7.37952,5.60927 -4.9709,4.55314 -9.39287,9.69439 -11.97584,16.01279 -3.21548,8.71819 -4.99551,17.83574 -7.08302,26.87285 -2.47869,10.53994 -4.28461,21.24748 -7.56753,31.59438 0,0 -27.26401,12.48459 -27.26401,12.48459 z"
       inkscape:connector-curvature="0" />
    <path
       style="fill:#0066ff;fill-opacity:1;stroke:#8c0094;stroke-width:10.62992096;stroke-miterlimit:4;stroke-dasharray:none;stroke-opacity:0.6585366"
       id="path5791"
       d="m 448.29129,737.01722 c 7.93344,-2.8064 16.11265,-4.64089 24.42724,-5.83783 7.84668,-1.33192 12.88039,-0.60537 20.23767,2.29102 7.02533,3.40177 13.9748,6.91724 21.16581,9.96632 6.02404,2.16441 12.3673,2.83348 18.7145,3.12233 5.11277,-0.0416 10.29789,0.50846 15.36257,-0.30774 2.93534,-1.0126 1.46735,-0.51103 4.40395,-1.50475 0,0 -23.73111,18.33878 -23.73111,18.33878 l 0,0 c -3.08569,0.84158 -1.5061,0.49186 -4.74143,1.03718 -5.19697,0.2644 -10.41258,0.13313 -15.60799,-0.12513 -6.56619,-0.50591 -13.08784,-1.53808 -19.22823,-4.03916 -7.07033,-3.17515 -13.96489,-6.71065 -21.06383,-9.81271 -6.80825,-2.27627 -12.31476,-2.3373 -19.36321,-1.07671 -8.23081,1.34045 -16.38639,3.27854 -24.0774,6.57292 0,0 23.50146,-18.62452 23.50146,-18.62452 z"
       inkscape:connector-curvature="0" />
    <path
       style="fill:#0066ff;fill-opacity:1;stroke:#8c0094;stroke-width:10.62992096;stroke-miterlimit:4;stroke-dasharray:none;stroke-opacity:0.6585366"
       id="path5793"
       d="m 472.92512,803.12503 c 7.82896,-0.29921 15.23227,1.85619 22.32041,4.96212 6.70343,3.83565 12.09668,9.45497 17.47448,14.90638 4.77221,5.05735 9.12343,10.34853 14.57239,14.70154 3.77142,3.439 8.49998,4.83343 13.42993,5.55372 2.80278,0.45096 5.54902,-0.17562 8.17489,-1.12029 0,0 -23.83072,18.25231 -23.83072,18.25231 l 0,0 c -2.9842,0.5036 -5.94203,0.77097 -8.93083,0.0519 -5.25292,-1.16891 -10.17565,-3.15965 -14.20451,-6.85022 -5.38936,-4.53068 -9.70776,-10.00602 -14.61167,-15.0319 -5.16518,-5.14438 -10.2794,-10.57642 -16.85974,-13.92027 -6.99754,-2.8085 -14.21989,-4.41827 -21.81642,-3.86353 0,0 24.28179,-17.64174 24.28179,-17.64174 z"
       inkscape:connector-curvature="0" />
    <text
       xml:space="preserve"
       style="font-style:normal;font-weight:normal;font-size:58.9419899px;line-height:125%;font-family:sans-serif;letter-spacing:0px;word-spacing:0px;fill:#000000;fill-opacity:1;stroke:none;stroke-width:1px;stroke-linecap:butt;stroke-linejoin:miter;stroke-opacity:1"
       x="650.91193"
       y="573.11646"
       id="text5795"
       sodipodi:linespacing="125%"
       transform="scale(0.87046494,1.1488113)"><tspan
         sodipodi:role="line"
         id="tspan5797"
         x="650.91193"
         y="573.11646">HTML</tspan></text>
    <text
       xml:space="preserve"
       style="font-style:normal;font-weight:normal;font-size:67.75947571px;line-height:125%;font-family:sans-serif;letter-spacing:0px;word-spacing:0px;fill:#000000;fill-opacity:1;stroke:none;stroke-width:1px;stroke-linecap:butt;stroke-linejoin:miter;stroke-opacity:1"
       x="506.90536"
       y="847.08545"
       id="text5799"
       sodipodi:linespacing="125%"
       transform="scale(1.1041309,0.90568972)"><tspan
         sodipodi:role="line"
         id="tspan5801"
         x="506.90536"
         y="847.08545">CSS</tspan></text>
    <text
       xml:space="preserve"
       style="font-style:normal;font-weight:normal;font-size:48.45548248px;line-height:125%;font-family:sans-serif;letter-spacing:0px;word-spacing:0px;fill:#000000;fill-opacity:1;stroke:none;stroke-width:1px;stroke-linecap:butt;stroke-linejoin:miter;stroke-opacity:1"
       x="853.22247"
       y="580.76208"
       id="text5803"
       sodipodi:linespacing="125%"
       transform="scale(0.66014483,1.5148191)"><tspan
         sodipodi:role="line"
         id="tspan5805"
         x="853.22247"
         y="580.76208">JavaScript</tspan></text>
    <path
       style="fill:#00ff00;fill-opacity:1;stroke:none;stroke-width:10.62992096;stroke-miterlimit:4;stroke-dasharray:none;stroke-opacity:0.6585366"
       id="path5807"
       d="m 335.84333,416.34085 c -4.01899,10.5046 -8.10002,20.98542 -12.21401,31.45382 -4.3416,11.90891 -9.37764,23.56355 -13.08144,35.69509 -3.67087,11.82607 -5.18823,24.09387 -6.01551,36.39838 -0.61254,12.47869 -0.56313,24.9791 -0.57344,37.46955 -0.0265,14.59288 -0.0346,29.18578 0.0373,43.77855 0.45657,7.70429 0.16277,15.56654 1.72569,23.16777 0.73853,3.59182 1.33918,5.01246 2.50894,8.45503 2.64349,7.07675 5.70225,13.89436 9.52119,20.40634 3.78404,6.6099 5.59313,14.03102 8.02601,21.17928 2.34239,6.78497 4.38202,13.67651 6.78358,20.44095 1.74995,5.38514 3.61964,10.72208 5.37648,16.10622 0.32125,0.88956 0.6425,1.77912 0.96375,2.66868 0,0 -26.168,14.50281 -26.168,14.50281 l 0,0 c -0.33687,-0.92247 -0.67373,-1.84494 -1.0106,-2.76741 -1.71287,-5.37848 -3.74076,-10.62501 -5.29449,-16.05563 -2.39101,-6.78391 -4.40532,-13.70001 -6.73105,-20.50667 -2.38344,-6.95073 -4.13586,-14.18045 -7.76279,-20.63514 -3.94498,-6.6902 -7.01216,-13.704 -9.71528,-20.987 -1.24106,-3.60307 -1.89898,-5.159 -2.69419,-8.92521 -1.64329,-7.78286 -1.12479,-15.82549 -1.69599,-23.71447 0.0457,-14.58498 -0.004,-29.16985 -0.085,-43.75463 -0.0295,-12.53336 -0.1156,-25.07233 0.40809,-37.59821 0.75066,-12.50539 2.20471,-24.9739 5.78381,-37.03032 3.58584,-12.23326 8.57679,-23.9459 12.94816,-35.90295 4.05392,-10.35775 8.17598,-20.69058 11.8365,-31.19651 0,0 27.12233,-12.64832 27.12233,-12.64832 z"
       inkscape:connector-curvature="0" />
    <text
       xml:space="preserve"
       style="font-style:normal;font-weight:normal;font-size:60.80719376px;line-height:125%;font-family:sans-serif;letter-spacing:0px;word-spacing:0px;fill:#000000;fill-opacity:1;stroke:none;stroke-width:1px;stroke-linecap:butt;stroke-linejoin:miter;stroke-opacity:1"
       x="59.5047"
       y="246.18721"
       id="text6349"
       sodipodi:linespacing="125%"
       transform="scale(0.39939059,2.5038146)"><tspan
         sodipodi:role="line"
         id="tspan6351"
         x="59.5047"
         y="246.18721">Internet Connection</tspan></text>
    <path
       style="fill:none;fill-rule:evenodd;stroke:#000000;stroke-width:1px;stroke-linecap:butt;stroke-linejoin:miter;stroke-opacity:1"
       d="m 137.38075,640.21997 c 0.67343,4.04061 0.58198,8.2863 2.0203,12.12183 0.66881,1.78348 2.89775,2.5168 4.04061,4.04061 0.90351,1.20467 1.24555,2.74935 2.02031,4.04061 11.81256,19.6876 -0.51752,-0.69003 6.06091,8.08122 6.98871,9.31828 1.37017,2.95705 8.08122,14.14213 0.37789,0.62982 5.40609,5.62437 6.06092,6.06092 1.25294,0.83529 2.78767,1.18501 4.04061,2.0203 0.79243,0.52829 1.16847,1.59439 2.0203,2.02031 1.10488,0.55244 4.68601,-0.34373 6.06092,0 2.066,0.5165 3.97268,1.60266 6.06091,2.0203 1.32072,0.26415 2.69374,0 4.04061,0 4.71405,0 9.42809,0 14.14214,0 10.77496,0 21.54992,0 32.32488,0 4.71405,0 9.42809,0 14.14214,0 1.34687,0 2.69374,0 4.04061,0 0.67343,0 1.41796,0.30117 2.0203,0 0.85184,-0.42591 1.34687,-1.34687 2.02031,-2.0203 0.67343,-0.67344 1.34687,-1.34687 2.0203,-2.02031 0.67344,-0.67343 2.02031,-1.06792 2.02031,-2.0203 0,-6.16562 -5.19461,-9.66837 -10.10153,-12.12183 -2.4835,-1.24175 -5.59771,-0.77855 -8.08122,-2.02031 -1.70367,-0.85183 -2.5168,-2.89775 -4.04061,-4.04061 -2.40935,-1.80701 -5.49871,-2.4911 -8.08122,-4.04061 -2.08208,-1.24925 -3.97883,-2.79136 -6.06092,-4.04061 -1.29125,-0.77475 -4.04061,-3.52615 -4.04061,-2.0203 0,2.9128 6.37312,4.92218 8.08123,6.06091 2.80165,1.86778 5.45189,3.95746 8.08122,6.06092 0.74368,0.59495 1.2584,1.44887 2.0203,2.0203 1.94248,1.45687 4.16488,2.52379 6.06092,4.04061 1.48737,1.1899 2.5168,2.89776 4.04061,4.04061 2.40935,1.80702 5.67186,2.2336 8.08122,4.04061 1.52381,1.14286 2.69374,2.69374 4.04061,4.04061 1.34687,1.34687 2.69374,2.69374 4.04061,4.04061 0.67343,0.67344 1.16847,1.59439 2.0203,2.02031 0.60234,0.30117 1.41797,-0.30117 2.02031,0 0.85183,0.42592 1.16847,1.59439 2.0203,2.0203 0.60234,0.30117 1.41797,-0.30117 2.02031,0 1.01861,0.50931 3.06532,2.47308 2.0203,4.04061 -3.94611,5.91917 -4.02283,3.02157 -10.10152,6.06092 -0.85184,0.42592 -1.34687,1.34687 -2.02031,2.0203 -1.34687,1.34687 -2.5168,2.89776 -4.04061,4.04061 -1.20468,0.90351 -2.78767,1.18502 -4.04061,2.02031 -1.74332,1.16221 -4.48288,4.48288 -6.06091,6.06092"
       id="path6353"
       inkscape:connector-curvature="0" />
    <text
       xml:space="preserve"
       style="font-style:normal;font-weight:normal;font-size:40px;line-height:125%;font-family:sans-serif;letter-spacing:0px;word-spacing:0px;fill:#000000;fill-opacity:1;stroke:none;stroke-width:1px;stroke-linecap:butt;stroke-linejoin:miter;stroke-opacity:1"
       x="137.38074"
       y="878.61597"
       id="text6355"
       sodipodi:linespacing="125%"><tspan
         sodipodi:role="line"
         id="tspan6357"
         x="137.38074"
         y="878.61597">&quot;Front End&quot;</tspan></text>
    <path
       style="fill:none;fill-rule:evenodd;stroke:#000000;stroke-width:1px;stroke-linecap:butt;stroke-linejoin:miter;stroke-opacity:1"
       d="m 315.16759,189.69193 c 39.77329,-11.36379 5.87427,0.79787 16.16244,-6.06091 1.25294,-0.8353 2.69374,-1.34687 4.04061,-2.02031 1.34687,-0.67343 2.61204,-1.54411 4.04062,-2.0203 0.63887,-0.21296 1.34687,0 2.0203,0 2.69374,0 5.38748,0 8.08122,0 4.04061,0 8.08122,0 12.12183,0 5.84639,0 14.96833,-1.12053 20.20305,2.0203 1.63332,0.97999 2.69374,2.69374 4.04061,4.04061 1.34687,1.34687 3.18878,2.33694 4.04061,4.04061 0.60234,1.20468 -0.42592,2.76286 0,4.04061 0.5601,1.68029 5.16085,3.8156 6.06092,4.04061 1.30665,0.32667 2.69374,0 4.04061,0 0.67343,0 1.35995,0.13207 2.0203,0 2.72273,-0.54454 5.50317,-0.98908 8.08122,-2.0203 0.88427,-0.35371 1.34687,-1.34687 2.02031,-2.02031 2.31153,-2.31153 2.39158,-2.8175 6.06091,-4.04061 1.2729,-0.4243 10.57951,0 12.12183,0 4.60746,0 14.24285,-0.93461 18.18275,2.02031 1.20468,0.9035 0.95551,2.97581 2.0203,4.04061 0.4762,0.47619 1.34688,0 2.02031,0 5.38748,0 10.77496,0 16.16244,0 0.67344,0 1.41797,0.30117 2.02031,0 0.85183,-0.42592 1.11679,-1.71914 2.0203,-2.02031 1.02396,-0.34132 12.49056,0 14.14214,0 3.36717,0 6.73435,0 10.10152,0 0.67344,0 1.38143,-0.21296 2.02031,0 7.32419,2.4414 1.43784,0.95856 6.06091,4.04061 1.25294,0.8353 2.78767,1.18501 4.04061,2.02031 0.79243,0.52828 1.16847,1.59438 2.02031,2.0203 0.60234,0.30117 1.45997,-0.37355 2.0203,0 1.58486,1.05657 2.45576,2.98404 4.04061,4.04061 0.30102,0.20068 5.39745,0 6.06092,0 1.34687,0 2.69374,0 4.04061,0 0.67343,0 1.41796,0.30117 2.0203,0 0.85184,-0.42592 1.16847,-1.59439 2.02031,-2.0203 0.60234,-0.30117 1.38143,0.21296 2.0203,0 1.42858,-0.47619 2.61204,-1.54412 4.04061,-2.02031 1.19224,-0.39741 8.97273,0 10.10153,0 0.67343,0 1.34687,0 2.0203,0 0.67344,0 1.41797,-0.30117 2.02031,0 0.85183,0.42592 1.34687,1.34687 2.0203,2.02031 0.67344,0.67343 1.59439,1.16847 2.02031,2.0203 0.30117,0.60234 -0.30117,1.41797 0,2.02031 2.2335,4.467 1.25389,0.62694 4.04061,2.0203 0.85184,0.42592 1.16847,1.59439 2.0203,2.02031 0.64382,0.32191 8.29594,0 10.10153,0 8.75466,0 17.50931,0 26.26397,0 1.9028,0 8.95225,-0.38309 10.10152,0 3.46731,1.15577 2.59361,6.92545 6.06092,8.08122 1.91663,0.63887 4.04061,0 6.06091,0 4.71405,0 9.42809,0 14.14214,0 0.48008,0 7.62841,-0.22641 8.08122,0 2.47174,1.23587 2.56419,4.09235 4.04061,6.06091 1.14286,1.52381 2.69374,2.69374 4.04061,4.04061 0.67343,0.67344 1.59439,1.16847 2.0203,2.02031 0.30117,0.60234 0,1.34687 0,2.0203 1.34687,2.02031 2.32368,4.34399 4.04061,6.06092 2.99963,2.99963 8.38379,2.0203 12.12183,2.0203 3.36718,0 6.73435,0 10.10153,0 0.67344,0 1.34687,0 2.02031,0 0.67343,0 1.41796,-0.30117 2.0203,0 1.79067,0.89534 4.2218,4.83484 6.06092,6.06092 1.84552,1.23035 4.90285,1.7245 6.06091,4.04061 0.30117,0.60234 -0.30117,1.41797 0,2.0203 0.89534,1.79068 4.83484,4.22181 6.06092,6.06092 1.67058,2.50588 2.37002,5.57534 4.04061,8.08122 0.52828,0.79243 1.34687,1.34687 2.0203,2.02031 2.02031,2.0203 4.04061,4.04061 6.06092,6.06091 0.67343,0.67344 1.59438,1.16847 2.0203,2.02031 0.30117,0.60233 0,1.34687 0,2.0203 0,1.34687 -0.42592,2.76286 0,4.04061 0.30117,0.90351 1.34687,1.34687 2.02031,2.02031 1.18823,1.18823 7.61344,7.14566 8.08122,8.08122 0.30117,0.60233 0,1.34687 0,2.0203 0,1.34687 0,2.69374 0,4.04061 0,1.34687 0,2.69374 0,4.04061 0,0.67344 0.67343,2.02031 0,2.02031 -0.67344,0 0,-2.69374 0,-2.02031 0,1.34687 0,2.69374 0,4.04061 0,0.67344 -0.30117,1.41797 0,2.02031 0.42591,0.85183 1.59438,1.16847 2.0203,2.0203 0.3005,0.60099 0,11.27197 0,12.12183 0,4.04061 0,8.08122 0,12.12183 0,1.34687 0.26415,2.7199 0,4.04061 -0.46935,2.34677 -2.50133,7.79261 -4.04061,10.10153 -3.08205,4.62307 -1.59921,-1.26328 -4.04061,6.06091 -0.74317,2.22952 0.57481,2.59512 2.02031,4.04061 0.67343,0.67344 1.22787,1.49202 2.0203,2.02031 1.25294,0.83529 2.97582,0.95551 4.04061,2.0203 0.47619,0.47619 0,1.34687 0,2.02031 0,1.65402 0.43633,8.79254 0,10.10152 -1.43607,4.30822 -2.77201,4.79232 -6.06091,8.08123 -0.67344,0.67343 -1.49202,1.22787 -2.02031,2.0203 -5.88251,8.82377 0.89541,-0.66593 -2.0203,8.08122 -0.6571,1.97128 -3.32096,1.43931 -2.02031,4.04061 0.42592,0.85184 1.34687,1.34687 2.02031,2.02031 0.67343,0.67343 1.16847,1.59438 2.0203,2.0203 0.60234,0.30117 1.34687,0 2.02031,0 1.34687,0.67344 2.78767,1.18501 4.04061,2.02031 0.79243,0.52828 1.16847,1.59438 2.0203,2.0203 0.60234,0.30117 1.34687,0 2.02031,0 1.34687,0.67344 2.78767,1.18501 4.04061,2.02031 1.58486,1.05657 2.33694,3.18877 4.04061,4.04061 5.08913,2.54456 -1.74837,-7.67332 6.06091,4.04061 0.37356,0.56033 0,1.34687 0,2.0203 0,0.67344 0.30117,1.41797 0,2.02031 -2.48191,4.96383 -6.29362,8.31393 -10.10152,12.12183 -0.67344,0.67343 -1.59439,1.16847 -2.02031,2.0203 -0.30117,0.60234 0,1.34687 0,2.02031 0,0.67343 0,1.34687 0,2.0203 0,4.04061 0,8.08122 0,12.12183 0,1.34687 0,2.69374 0,4.04061 0,1.34687 -0.42592,2.76286 0,4.04061 0.30117,0.90351 1.49202,1.22788 2.02031,2.02031 0.83529,1.25294 1.18501,2.78767 2.0203,4.04061 1.16222,1.74332 4.48289,4.48288 6.06092,6.06091 0.67343,0.67344 1.59439,1.16847 2.0203,2.02031 0.30743,0.61485 0,5.15105 0,6.06091 0,2.69374 0.85184,5.52572 0,8.08122 -0.76783,2.30351 -2.95473,3.88916 -4.04061,6.06092 -0.30117,0.60234 0.30117,1.41797 0,2.02031 -3.08052,6.16104 -1.60162,-3.69503 -4.04061,6.06091 -0.32666,1.30666 0,2.69374 0,4.04061 0,0.67344 0.37356,1.45997 0,2.02031 -4.99299,7.48948 -4.04061,0.37055 -4.04061,8.08122 0,0.67343 -0.30117,1.41796 0,2.0203 0.85184,1.70367 3.43827,2.2336 4.04061,4.04061 0.27546,0.82636 0,13.77531 0,14.14214 0,2.0203 0,4.04061 0,6.06091 0,4.95163 0.90351,6.20311 -2.0203,10.10153 -2.111,2.81466 -5.5324,5.53239 -8.08122,8.08122 -0.67344,0.67343 -1.34687,1.34687 -2.02031,2.0203 -0.67343,0.67344 -1.16847,1.59439 -2.0203,2.02031 -0.60234,0.30117 -1.34687,0 -2.02031,0 -2.0203,0 -4.04061,0 -6.06091,0 -4.37866,0 -8.02046,0.44051 -12.12183,-2.02031 -1.63332,-0.97999 -2.69374,-2.69374 -4.04061,-4.04061 -0.67344,-0.67343 -1.1168,-1.71913 -2.02031,-2.0203 -0.65927,-0.21976 -14.00673,-0.0226 -14.14213,0 -4.20123,0.7002 -7.92061,3.3404 -12.12184,4.04061 -1.99281,0.33213 -4.06809,-0.33214 -6.06091,0 -2.10061,0.3501 -3.95273,1.71913 -6.06092,2.0203 -2.66666,0.38096 -5.38748,0 -8.08122,0 -6.06091,0 -12.12183,0 -18.18274,0 -0.10469,0 -16.94477,0.41266 -18.18275,0 -1.79823,-0.59941 -4.26268,-5.4615 -6.06091,-6.06091 -4.73,-1.57667 -3.2742,0.16249 -6.06092,2.0203 -1.25294,0.8353 -2.64247,1.46105 -4.04061,2.02031 -14.64838,5.85935 0.69175,-0.13835 -10.10152,2.0203 -2.08824,0.41765 -3.97269,1.60266 -6.06092,2.02031 -1.32071,0.26414 -2.69374,0 -4.04061,0 -5.38748,0 -10.77496,0 -16.16244,0 -4.71405,0 -9.42809,0 -14.14214,0 -1.34687,0 -2.73395,0.32666 -4.04061,0 -4.89022,-1.22256 -4.05611,-3.04209 -8.08122,-6.06092 -1.20467,-0.90351 -2.78767,-1.18501 -4.04061,-2.0203 -2.68301,-1.78868 -3.69817,-6.23213 -8.08122,-4.04061 -2.74621,1.3731 -7.07411,8.08325 -10.10152,10.10152 -1.25294,0.8353 -2.74936,1.24556 -4.04061,2.02031 -2.08208,1.24925 -3.88916,2.95473 -6.06092,4.04061 -1.90476,0.95238 -3.9603,1.6702 -6.06091,2.0203 -2.56029,0.42672 -15.8679,0 -18.18275,0 -6.06091,0 -12.12183,0 -18.18274,0 -1.34687,0 -2.69374,0 -4.04061,0 -1.34687,0 -2.73396,0.32667 -4.04062,0 -4.89022,-1.22255 -4.05611,-3.04208 -8.08122,-6.06091 -1.20467,-0.90351 -2.97581,-0.95551 -4.04061,-2.02031 -0.7242,-0.7242 -5.5295,-7.97588 -6.06091,-10.10152 -0.32666,-1.30666 0.60234,-2.83594 0,-4.04061 -0.85184,-1.70367 -3.18878,-2.33694 -4.04061,-4.04061 -0.90351,-1.80702 0,-4.04061 0,-6.06092 0,-0.67343 0.67343,-2.0203 0,-2.0203 -10.20619,0 -3.10531,1.55265 -8.08122,4.04061 -0.60234,0.30117 -1.41797,-0.30117 -2.02031,0 -0.85183,0.42591 -1.09636,1.78932 -2.0203,2.0203 -1.49843,0.37461 -14.33913,0 -16.16244,0 -4.04061,0 -8.08122,0 -12.12183,0 -0.67344,0 -1.39504,0.25011 -2.02031,0 -6.89666,1.42964 -7.7783,-5.90946 -12.12183,-8.08122 -2.4835,-1.24175 -5.59771,-0.77855 -8.08122,-2.0203 -2.55551,-1.27776 -3.50541,-4.78317 -6.06091,-6.06092 -2.155,-1.07749 -2.70051,2 -4.04061,-2.0203 -1.84695,-5.54084 2.78597,-3.27494 -2.02031,-8.08122 -0.67343,-0.67344 -1.16847,-1.59439 -2.0203,-2.02031 -1.90477,-0.95238 -4.15616,-1.06792 -6.06092,-2.0203 -1.70367,-0.85184 -2.5168,-2.89776 -4.04061,-4.04061 -1.94248,-1.45687 -3.97883,-2.79137 -6.06092,-4.04061 -4.903,-2.94181 -10.79738,-5.0844 -14.14213,-10.10153 -4.5985,-6.89775 -3.36718,-7.40779 -6.06092,-14.14214 -0.55925,-1.39814 -1.54411,-2.61203 -2.0203,-4.04061 -0.21296,-0.63887 0,-1.34687 0,-2.0203 0,-3.36718 0,-6.73435 0,-10.10153 0,-2.0203 0,-4.04061 0,-6.06091 0,-0.67344 -0.67344,-2.02031 0,-2.02031 0.67343,0 0,1.34687 0,2.02031 0,0.67343 0.30117,1.41796 0,2.0203 -0.42592,0.85184 -1.34687,1.34687 -2.02031,2.02031 -0.67343,0.67343 -1.16847,1.59439 -2.0203,2.0203 -0.60234,0.30117 -1.34687,0 -2.02031,0 -1.34687,0 -2.69374,0 -4.04061,0 -4.71404,0 -9.42809,0 -14.14213,0 -7.40779,0 -14.81557,0 -22.22336,0 -3.36717,0 -6.76819,0.47619 -10.10152,0 -1.49072,-0.21296 -2.69374,-1.34687 -4.04061,-2.0203 -2.69374,-1.34687 -5.31304,-2.85425 -8.08122,-4.04061 -1.9574,-0.83889 -4.23481,-0.92464 -6.06092,-2.02031 -1.63332,-0.97999 -2.55324,-2.85071 -4.04061,-4.04061 -12.52144,-10.01715 -0.65955,0.23374 -10.10153,-6.06091 -0.79242,-0.52829 -1.34687,-1.34687 -2.0203,-2.02031 -0.67344,-0.67343 -1.59439,-1.16847 -2.02031,-2.0203 -2.26846,-4.53694 6.89239,0.18651 -4.04061,-6.06092 -3.14873,-1.79927 -6.95279,-2.24133 -10.10152,-4.04061 -1.6538,-0.94502 -2.55324,-2.85071 -4.04061,-4.04061 -14.81557,-11.85245 2.0203,4.44467 -10.10153,-10.10152 -1.82909,-2.19492 -4.47605,-3.68363 -6.06091,-6.06092 -1.15934,-1.73901 -3.7712,-13.0645 -4.04061,-14.14213 -0.67344,-2.69374 -1.62763,-5.33249 -2.02031,-8.08122 -0.28571,-2 0.55502,-4.11835 0,-6.06092 -0.82737,-2.89581 -3.31016,-5.15945 -4.04061,-8.08122 -0.65333,-2.61331 0,-5.38748 0,-8.08122 0,-2.69374 0,-5.38748 0,-8.08122 0,-1.12765 -0.30827,-9.1767 0,-10.10153 0.30117,-0.9035 1.34687,-1.34687 2.02031,-2.0203 0.67343,-0.67344 1.1168,-1.71914 2.0203,-2.02031 0.82636,-0.27545 13.77531,0 14.14214,0 1.34687,0 2.69374,0 4.04061,0 0.67343,0 2.0203,-0.67343 2.0203,0 0,0.67344 -1.41796,0.30117 -2.0203,0 -5.09718,-2.54859 -6.34327,-4.32296 -10.10153,-8.08122 -4.31364,-4.31364 -6.12424,-5.2724 -8.08122,-12.12183 -0.55502,-1.94257 0.75033,-4.18511 0,-6.06091 -0.70741,-1.76853 -3.3332,-2.27209 -4.04061,-4.04061 -0.75032,-1.87581 0,-4.04061 0,-6.06092 0,-3.36717 0,-6.73435 0,-10.10152 0,-2.02031 0,-4.04061 0,-6.06092 0,-1.34687 -0.60234,-2.83593 0,-4.04061 1.98263,-3.96525 8.95808,-6.67511 12.12183,-8.08122 7.30965,-3.24873 16.19349,-6.93119 24.24366,-8.08122 2,-0.28571 4.06092,0.28571 6.06092,0 2.74874,-0.39268 5.3585,-1.47576 8.08122,-2.0203 0.66036,-0.13208 1.38143,0.21295 2.02031,0 1.42857,-0.4762 2.53476,-2.02031 4.04061,-2.02031 5.24528,0 4.04061,2.86022 4.04061,6.06092 0,0.67343 0.30116,1.41796 0,2.0203 -1.54103,3.08205 -3.60987,2.45105 -6.06092,0 -9.42161,-9.42161 -1.47019,-2.39026 -4.04061,-10.10153 -0.95238,-2.85714 -3.08823,-5.22407 -4.04061,-8.08122 -0.42592,-1.27775 0,-2.69374 0,-4.04061 0,-2.0203 0,-4.04061 0,-6.06091 0,-2.02031 0,-4.04061 0,-6.06092 0,-2.0203 -0.63888,-4.14428 0,-6.06091 0.98587,-2.95761 7.38318,-10.08308 10.10153,-12.12183 1.01741,-4.45106 4.15615,-1.06793 6.06091,-2.02031 0.85184,-0.42591 1.1168,-1.71913 2.02031,-2.0203 1.14927,-0.38309 8.19872,0 10.10152,0 1.65158,0 13.11818,-0.34132 14.14214,0 0.9035,0.30117 1.59438,1.16847 2.0203,2.0203 0.1299,0.2598 -0.6599,5.38071 2.02031,4.04061 3.12645,-1.56323 1.56968,-5.82809 2.0203,-8.08122 0.41765,-2.08823 1.34687,-4.04061 2.02031,-6.06091 0.67343,-2.02031 1.06792,-4.15616 2.0203,-6.06092 0.42592,-0.85183 1.49202,-1.22787 2.02031,-2.0203 1.67058,-2.50588 2.37002,-5.57534 4.04061,-8.08122 0.52828,-0.79243 1.34687,-1.34687 2.0203,-2.02031 0.67344,-0.67343 1.16847,-1.59439 2.02031,-2.0203 0.86284,-0.43142 9.30287,0 10.10152,0 1.34687,0 2.69374,0 4.04061,0 0.67344,0 2.02031,-0.67344 2.02031,0 0,0.67343 -2.69374,0 -2.02031,0 2.02031,0 4.04061,0 6.06092,0 0.67343,0 1.35995,0.13207 2.0203,0 2.72273,-0.54455 6.11784,-3.98369 8.08122,-2.02031 1.96339,1.96339 -2.0203,5.30458 -2.0203,8.08122 0,0.67344 1.41797,-0.30117 2.0203,0 0.85184,0.42592 1.16847,1.59439 2.02031,2.02031 0.60234,0.30117 2.0203,-0.67344 2.0203,0 0,1.76307 -10.50735,-4.24353 2.02031,2.0203"
       id="path6361"
       inkscape:connector-curvature="0" />
    <text
       xml:space="preserve"
       style="font-style:normal;font-weight:normal;font-size:40px;line-height:125%;font-family:sans-serif;letter-spacing:0px;word-spacing:0px;fill:#000000;fill-opacity:1;stroke:none;stroke-width:1px;stroke-linecap:butt;stroke-linejoin:miter;stroke-opacity:1"
       x="20.203053"
       y="219.99651"
       id="text6363"
       sodipodi:linespacing="125%"><tspan
         sodipodi:role="line"
         id="tspan6365"
         x="20.203053"
         y="219.99651">&quot;The Cloud&quot;</tspan></text>
  </g>
</svg>
